<?xml version="1.0" encoding="UTF-8" standalone="no"?>
<svg
   xmlns:dc="http://purl.org/dc/elements/1.1/"
   xmlns:cc="http://creativecommons.org/ns#"
   xmlns:rdf="http://www.w3.org/1999/02/22-rdf-syntax-ns#"
   xmlns:svg="http://www.w3.org/2000/svg"
   xmlns="http://www.w3.org/2000/svg"
   height="64"
   width="64"
   version="1.1"
   viewBox="0 0 64 64"
   id="Layer_1">
  <metadata
     id="metadata13">
    <rdf:RDF>
      <cc:Work
         rdf:about="">
        <dc:format>image/svg+xml</dc:format>
        <dc:type
           rdf:resource="http://purl.org/dc/dcmitype/StillImage" />
        <dc:title></dc:title>
      </cc:Work>
    </rdf:RDF>
  </metadata>
  <defs
     id="defs11" />
  <style
     id="style3">.st0{fill:#7289DA;}</style>
  <circle
     r="32"
     cy="32"
     cx="32"
     id="path4147"
     style="opacity:1;fill:#7289da;fill-opacity:1;stroke:none;stroke-width:1;stroke-linecap:round;stroke-linejoin:miter;stroke-miterlimit:4;stroke-dasharray:none;stroke-dashoffset:0;stroke-opacity:1" />
  <g
     transform="translate(0,3.6241554)"
     id="g4218">
    <path
       style="opacity:1;fill:#ffffff;fill-opacity:1;stroke:none;stroke-width:1;stroke-linecap:round;stroke-linejoin:miter;stroke-miterlimit:4;stroke-dasharray:none;stroke-dashoffset:0;stroke-opacity:1"
       d="m 27.136719,15.025391 c 0,0 -4.355975,-0.09532 -8.933594,3.33789 0,0 -4.578125,8.295185 -4.578125,18.53125 0,0 2.671893,4.609508 9.697266,4.832031 0,10e-7 1.175235,-1.428736 2.128906,-2.636718 -4.037206,-1.207983 -5.5625,-3.751953 -5.5625,-3.751953 0,0 0.318422,0.223124 0.890625,0.541015 0.03179,0.03179 0.06337,0.06196 0.126953,0.09375 0.09537,0.06358 0.189786,0.09658 0.285156,0.160156 0.794725,0.445047 1.589166,0.793978 2.320313,1.080079 1.30335,0.508625 2.861853,1.017508 4.673828,1.367187 2.384176,0.445048 5.180676,0.603453 8.232422,0.03125 1.494084,-0.254312 3.019924,-0.697664 4.609375,-1.365234 1.112616,-0.413257 2.352901,-1.018649 3.65625,-1.876953 0,0 -1.589546,2.607009 -5.753906,3.783203 0.953669,1.207983 2.097656,2.574218 2.097656,2.574218 7.025374,-0.222522 9.728515,-4.832031 9.728515,-4.832031 0,-10.236065 -4.578125,-18.53125 -4.578125,-18.53125 -4.577619,-3.433217 -8.93164,-3.33789 -8.93164,-3.33789 l -0.445313,0.507812 c 5.404134,1.653029 7.914063,4.037109 7.914063,4.037109 -3.306058,-1.811973 -6.548403,-2.701102 -9.56836,-3.050781 -2.288809,-0.25431 -4.480792,-0.191812 -6.419922,0.0625 -0.190734,0 -0.350281,0.03266 -0.541015,0.06445 -1.112616,0.09537 -3.815372,0.507869 -7.216797,2.001954 -1.176194,0.540414 -1.875,0.921874 -1.875,0.921874 0,0 2.639304,-2.511033 8.361328,-4.164062 l -0.318359,-0.380859 z"
       id="rect4215" />
    <path
       style="fill:#7289da"
       class="st0"
       d="m 26.246187,26.881968 c -1.811974,0 -3.24248,1.589451 -3.24248,3.528581 0,1.93913 1.462295,3.528581 3.24248,3.528581 1.811974,0 3.24248,-1.589451 3.24248,-3.528581 0.03179,-1.93913 -1.430506,-3.528581 -3.24248,-3.528581 z m 11.602993,0 c -1.811974,0 -3.24248,1.589451 -3.24248,3.528581 0,1.93913 1.462295,3.528581 3.24248,3.528581 1.811974,0 3.24248,-1.589451 3.24248,-3.528581 0,-1.93913 -1.430506,-3.528581 -3.24248,-3.528581 z"
       id="path5" />
  </g>
</svg>
