<?xml version="1.0" encoding="UTF-8" standalone="no"?>
<svg
   xmlns:dc="http://purl.org/dc/elements/1.1/"
   xmlns:cc="http://creativecommons.org/ns#"
   xmlns:rdf="http://www.w3.org/1999/02/22-rdf-syntax-ns#"
   xmlns:svg="http://www.w3.org/2000/svg"
   xmlns="http://www.w3.org/2000/svg"
   xmlns:sodipodi="http://sodipodi.sourceforge.net/DTD/sodipodi-0.dtd"
   xmlns:inkscape="http://www.inkscape.org/namespaces/inkscape"
   id="Layer_1"
   viewBox="0 0 350 95.999998"
   version="1.1"
   inkscape:version="0.91 r13725"
   sodipodi:docname="discord-wide.svg"
   width="350"
   height="96">
  <metadata
     id="metadata13">
    <rdf:RDF>
      <cc:Work
         rdf:about="">
        <dc:format>image/svg+xml</dc:format>
        <dc:type
           rdf:resource="http://purl.org/dc/dcmitype/StillImage" />
        <dc:title></dc:title>
      </cc:Work>
    </rdf:RDF>
  </metadata>
  <defs
     id="defs11" />
  <sodipodi:namedview
     pagecolor="#ffffff"
     bordercolor="#666666"
     borderopacity="1"
     objecttolerance="10"
     gridtolerance="10"
     guidetolerance="10"
     inkscape:pageopacity="0"
     inkscape:pageshadow="2"
     inkscape:window-width="3840"
     inkscape:window-height="2047"
     id="namedview9"
     showgrid="false"
     inkscape:zoom="1.82"
     inkscape:cx="372.11193"
     inkscape:cy="15.77655"
     inkscape:window-x="0"
     inkscape:window-y="36"
     inkscape:window-maximized="1"
     inkscape:current-layer="Layer_1" />
  <style
     id="style3">.st0{fill:#7289DA;}</style>
  <g
     id="g4141"
     transform="matrix(0.48235943,0,0,0.48235943,-17.799063,-17.450936)">
    <path
       style="fill:#7289da"
       inkscape:connector-curvature="0"
       id="path5"
       d="m 142.8,120.1 c -5.7,0 -10.2,4.9 -10.2,11 0,6.1 4.6,11 10.2,11 5.7,0 10.2,-4.9 10.2,-11 0,-6.1 -4.6,-11 -10.2,-11 z m -36.5,0 c -5.7,0 -10.2,4.9 -10.2,11 0,6.1 4.6,11 10.2,11 5.7,0 10.2,-4.9 10.2,-11 0.1,-6.1 -4.5,-11 -10.2,-11 z"
       class="st0" />
    <path
       style="fill:#7289da"
       inkscape:connector-curvature="0"
       id="path7"
       d="m 191.4,36.900004 -134,0 c -11.3,0 -20.5,9.2 -20.5,20.5 L 36.9,191.4 c 0,11.3 9.2,20.5 20.5,20.5 l 113.4,0 -5.3,-18.3 12.8,11.8 12.1,11.1 21.6,18.7 0,-177.799996 c -0.1,-11.3 -9.3,-20.5 -20.6,-20.5 z M 152.8,166.4 c 0,0 -3.6,-4.3 -6.6,-8 13.1,-3.7 18.1,-11.8 18.1,-11.8 -4.1,2.7 -8,4.6 -11.5,5.9 -5,2.1 -9.8,3.4 -14.5,4.3 -9.6,1.8 -18.4,1.3 -25.9,-0.1 -5.7,-1.1 -10.6,-2.6 -14.7,-4.3 -2.3,-0.9 -4.8,-2 -7.3,-3.4 -0.3,-0.2 -0.6,-0.3 -0.9,-0.5 -0.2,-0.1 -0.3,-0.2 -0.4,-0.2 -1.8,-1 -2.8,-1.7 -2.8,-1.7 0,0 4.8,7.9 17.5,11.7 -3,3.8 -6.7,8.2 -6.7,8.2 C 75,165.8 66.6,151.4 66.6,151.4 66.6,119.5 81,93.600004 81,93.600004 c 14.4,-10.7 28,-10.4 28,-10.4 l 1,1.2 c -18,5.1 -26.2,13 -26.2,13 0,0 2.2,-1.2 5.9,-2.8 10.7,-4.7 19.2,-5.9 22.7,-6.3 0.6,-0.1 1.1,-0.2 1.7,-0.2 6.1,-0.8 13,-1 20.2,-0.2 9.5,1.1 19.7,3.9 30.1,9.5 0,0 -7.9,-7.5 -24.9,-12.6 l 1.4,-1.6 c 0,0 13.7,-0.3 28,10.4 0,0 14.4,25.899996 14.4,57.799996 0,-0.1 -8.4,14.3 -30.5,15 z m 151,-86.699996 -33.2,0 0,37.299996 22.1,19.9 0,-36.2 11.8,0 c 7.5,0 11.2,3.6 11.2,9.4 l 0,27.7 c 0,5.8 -3.5,9.7 -11.2,9.7 l -34,0 0,21.1 33.2,0 c 17.8,0.1 34.5,-8.8 34.5,-29.2 l 0,-29.8 C 338.3,88.800004 321.6,79.700004 303.8,79.700004 Z m 174,59.699996 0,-30.6 c 0,-10.999996 19.8,-13.499996 25.8,-2.5 l 18.3,-7.399996 c -7.2,-15.8 -20.3,-20.4 -31.2,-20.4 -17.8,0 -35.4,10.3 -35.4,30.299996 l 0,30.6 c 0,20.2 17.6,30.3 35,30.3 11.2,0 24.6,-5.5 32,-19.9 l -19.6,-9 c -4.8,12.3 -24.9,9.3 -24.9,-1.4 z M 417.3,113 c -6.9,-1.5 -11.5,-4 -11.8,-8.3 0.4,-10.299996 16.3,-10.699996 25.6,-0.8 l 14.7,-11.299996 c -9.2,-11.2 -19.6,-14.2 -30.3,-14.2 -16.3,0 -32.1,9.2 -32.1,26.599996 0,16.9 13,26 27.3,28.2 7.3,1 15.4,3.9 15.2,8.9 -0.6,9.5 -20.2,9 -29.1,-1.8 l -14.2,13.3 c 8.3,10.7 19.6,16.1 30.2,16.1 16.3,0 34.4,-9.4 35.1,-26.6 1,-21.7 -14.8,-27.2 -30.6,-30.1 z m -67,55.5 22.4,0 0,-88.799996 -22.4,0 0,88.799996 z M 728,79.700004 l -33.2,0 0,37.299996 22.1,19.9 0,-36.2 11.8,0 c 7.5,0 11.2,3.6 11.2,9.4 l 0,27.7 c 0,5.8 -3.5,9.7 -11.2,9.7 l -34,0 0,21.1 33.3,0 c 17.8,0.1 34.5,-8.8 34.5,-29.2 l 0,-29.8 C 762.5,88.800004 745.8,79.700004 728,79.700004 Z m -162.9,-1.2 c -18.4,0 -36.7,10 -36.7,30.499996 l 0,30.3 c 0,20.3 18.4,30.5 36.9,30.5 18.4,0 36.7,-10.2 36.7,-30.5 L 602,109 C 602,88.600004 583.5,78.500004 565.1,78.500004 Z M 579.5,139.3 c 0,6.4 -7.2,9.7 -14.3,9.7 -7.2,0 -14.4,-3.1 -14.4,-9.7 l 0,-30.3 c 0,-6.5 7,-9.999996 14,-9.999996 7.3,0 14.7,3.099996 14.7,9.999996 l 0,30.3 z M 682.4,109 c -0.5,-20.799996 -14.7,-29.199996 -33,-29.199996 l -35.5,0 0,88.799996 22.7,0 0,-28.2 4,0 20.6,28.2 28,0 -24.2,-30.5 c 10.7,-3.4 17.4,-12.7 17.4,-29.1 z m -32.6,12 -13.2,0 0,-20.3 13.2,0 c 14.1,0 14.1,20.3 0,20.3 z"
       class="st0" />
  </g>
</svg>
