<?xml version="1.0" encoding="UTF-8" standalone="no"?>
<!-- Created with Inkscape (http://www.inkscape.org/) -->

<svg
   xmlns:dc="http://purl.org/dc/elements/1.1/"
   xmlns:cc="http://creativecommons.org/ns#"
   xmlns:rdf="http://www.w3.org/1999/02/22-rdf-syntax-ns#"
   xmlns:svg="http://www.w3.org/2000/svg"
   xmlns="http://www.w3.org/2000/svg"
   xmlns:sodipodi="http://sodipodi.sourceforge.net/DTD/sodipodi-0.dtd"
   xmlns:inkscape="http://www.inkscape.org/namespaces/inkscape"
   id="svg2"
   version="1.1"
   inkscape:version="0.91 r13725"
   xml:space="preserve"
   width="1024"
   height="1024"
   viewBox="0 0 1024 1024"
   sodipodi:docname="opsbears-logo.svg"><metadata
     id="metadata8"><rdf:RDF><cc:Work
         rdf:about=""><dc:format>image/svg+xml</dc:format><dc:type
           rdf:resource="http://purl.org/dc/dcmitype/StillImage" /><dc:title></dc:title></cc:Work></rdf:RDF></metadata><defs
     id="defs6"><clipPath
       clipPathUnits="userSpaceOnUse"
       id="clipPath16"><path
         d="m 0,566.93 566.93,0 L 566.93,0 0,0 0,566.93 Z"
         id="path18"
         inkscape:connector-curvature="0" /></clipPath></defs><sodipodi:namedview
     pagecolor="#ffffff"
     bordercolor="#666666"
     borderopacity="1"
     objecttolerance="10"
     gridtolerance="10"
     guidetolerance="10"
     inkscape:pageopacity="0"
     inkscape:pageshadow="2"
     inkscape:window-width="3840"
     inkscape:window-height="2047"
     id="namedview4"
     showgrid="false"
     inkscape:zoom="1.8838554"
     inkscape:cx="345.11215"
     inkscape:cy="471.35668"
     inkscape:window-x="0"
     inkscape:window-y="36"
     inkscape:window-maximized="1"
     inkscape:current-layer="g10" /><g
     id="g10"
     inkscape:groupmode="layer"
     inkscape:label="opsbears-shape"
     transform="matrix(1.25,0,0,-1.25,0,1024)"><g
       id="g4260"
       transform="matrix(3.2321494,0,0,3.2321494,-6.0391622,-1006.6341)"><circle
         transform="scale(1,-1)"
         r="96.690384"
         cy="-438.983"
         cx="127.68723"
         id="path4258"
         style="opacity:1;fill:#ffffff;fill-opacity:1;stroke:none;stroke-width:0.80000001;stroke-linecap:round;stroke-linejoin:round;stroke-miterlimit:4;stroke-dasharray:none;stroke-dashoffset:0;stroke-opacity:1" /><g
         transform="translate(-154.57662,116.78179)"
         id="g12"><g
           clip-path="url(#clipPath16)"
           id="g14"><g
             transform="translate(280.4668,232.2193)"
             id="g20"><path
               inkscape:connector-curvature="0"
               id="path22"
               style="fill:#4c4c4c;fill-opacity:1;fill-rule:evenodd;stroke:none"
               d="m 0,0 c -50.054,0 -90.63,40.576 -90.63,90.629 0,50.054 40.576,90.63 90.63,90.63 50.054,0 90.63,-40.576 90.63,-90.63 C 90.63,40.576 50.054,0 0,0 m -0.103,198.231 c -59.385,0 -107.527,-48.141 -107.527,-107.526 0,-59.386 48.142,-107.527 107.527,-107.527 59.386,0 107.527,48.141 107.527,107.527 0,59.385 -48.141,107.526 -107.527,107.526" /></g><g
             transform="translate(216.2315,234.6041)"
             id="g24"><path
               inkscape:connector-curvature="0"
               id="path26"
               style="fill:#4c4c4c;fill-opacity:1;fill-rule:evenodd;stroke:none"
               d="m 0,0 c 4.365,7.441 11.718,9.357 17.434,6.005 l 9.317,-5.464 c 5.717,-3.355 7.633,-10.709 4.281,-16.424 l -7.034,-11.992 c -3.353,-5.717 -7.67,-2.458 -13.387,0.895 l -12.768,7.488 c -5.716,3.353 -5.194,6.957 -2.854,10.949 L 0,0 Z" /></g><g
             transform="translate(297.752,430.0181)"
             id="g28"><path
               inkscape:connector-curvature="0"
               id="path30"
               style="fill:#4c4c4c;fill-opacity:1;fill-rule:evenodd;stroke:none"
               d="m 0,0 c -0.06,-8.627 -5.469,-13.963 -12.096,-13.918 l -10.802,0.075 c -6.627,0.046 -11.963,5.454 -11.918,12.081 l 0.095,13.904 c 0.046,6.627 5.413,5.963 12.041,5.917 L -7.878,17.957 C -1.251,17.912 0.099,14.53 0.067,9.902 L 0,0 Z" /></g><g
             transform="translate(241.4844,422.7545)"
             id="g32"><path
               inkscape:connector-curvature="0"
               id="path34"
               style="fill:#4c4c4c;fill-opacity:1;fill-rule:evenodd;stroke:none"
               d="m 0,0 c 4.262,-7.501 2.245,-14.826 -3.517,-18.101 l -9.391,-5.336 c -5.763,-3.274 -13.089,-1.258 -16.363,4.503 l -6.869,12.088 c -3.274,5.763 1.706,7.871 7.469,11.146 l 12.869,7.313 c 5.762,3.274 8.622,1.02 10.908,-3.004 L 0,0 Z" /></g><g
             transform="translate(196.3867,388.3306)"
             id="g36"><path
               inkscape:connector-curvature="0"
               id="path38"
               style="fill:#4c4c4c;fill-opacity:1;fill-rule:evenodd;stroke:none"
               d="M 0,0 C 7.441,-4.365 9.357,-11.719 6.005,-17.434 L 0.54,-26.752 c -3.353,-5.717 -10.707,-7.633 -16.423,-4.281 l -11.992,7.035 c -5.717,3.353 -2.458,7.669 0.896,13.387 l 7.488,12.767 c 3.352,5.717 6.957,5.194 10.948,2.854 L 0,0 Z" /></g><g
             transform="translate(174.543,335.9693)"
             id="g40"><path
               inkscape:connector-curvature="0"
               id="path42"
               style="fill:#4c4c4c;fill-opacity:1;fill-rule:evenodd;stroke:none"
               d="m 0,0 c 8.628,-0.06 13.963,-5.469 13.918,-12.096 l -0.074,-10.8 C 13.798,-29.525 8.388,-34.861 1.762,-34.816 l -13.903,0.095 c -6.628,0.045 -5.964,5.413 -5.918,12.041 l 0.101,14.801 c 0.045,6.627 3.428,7.978 8.055,7.945 L 0,0 Z" /></g><g
             transform="translate(181.8067,279.7017)"
             id="g44"><path
               inkscape:connector-curvature="0"
               id="path46"
               style="fill:#4c4c4c;fill-opacity:1;fill-rule:evenodd;stroke:none"
               d="m 0,0 c 7.502,4.262 14.827,2.244 18.101,-3.517 l 5.336,-9.391 c 3.275,-5.763 1.257,-13.09 -4.503,-16.364 L 6.846,-36.14 c -5.763,-3.274 -7.871,1.706 -11.146,7.469 l -7.313,12.868 c -3.275,5.762 -1.02,8.623 3.003,10.908 L 0,0 Z" /></g><g
             transform="translate(268.5928,212.7603)"
             id="g48"><path
               inkscape:connector-curvature="0"
               id="path50"
               style="fill:#4c4c4c;fill-opacity:1;fill-rule:evenodd;stroke:none"
               d="M 0,0 C 0.06,8.628 5.469,13.963 12.095,13.918 L 22.897,13.844 C 29.524,13.798 34.86,8.387 34.815,1.762 L 34.72,-12.141 c -0.046,-6.628 -5.413,-5.964 -12.041,-5.918 l -14.802,0.101 c -6.626,0.045 -7.976,3.428 -7.945,8.054 L 0,0 Z" /></g><g
             transform="translate(324.8604,220.024)"
             id="g52"><path
               inkscape:connector-curvature="0"
               id="path54"
               style="fill:#4c4c4c;fill-opacity:1;fill-rule:evenodd;stroke:none"
               d="m 0,0 c -4.262,7.502 -2.245,14.827 3.516,18.101 l 9.391,5.336 c 5.763,3.275 13.089,1.256 16.363,-4.503 L 36.139,6.846 C 39.413,1.083 34.433,-1.025 28.67,-4.3 L 15.801,-11.613 C 10.04,-14.888 7.18,-12.633 4.892,-8.611 L 0,0 Z" /></g><g
             transform="translate(369.958,254.4478)"
             id="g56"><path
               inkscape:connector-curvature="0"
               id="path58"
               style="fill:#4c4c4c;fill-opacity:1;fill-rule:evenodd;stroke:none"
               d="m 0,0 c -7.441,4.367 -9.358,11.719 -6.006,17.434 l 5.465,9.318 c 3.354,5.717 10.707,7.633 16.423,4.281 l 11.992,-7.035 c 5.717,-3.353 2.458,-7.669 -0.896,-13.387 L 19.49,-2.156 C 16.139,-7.873 12.534,-7.35 8.542,-5.01 L 0,0 Z" /></g><g
             transform="translate(391.8018,306.8091)"
             id="g60"><path
               inkscape:connector-curvature="0"
               id="path62"
               style="fill:#4c4c4c;fill-opacity:1;fill-rule:evenodd;stroke:none"
               d="m 0,0 c -8.628,0.061 -13.964,5.47 -13.918,12.096 l 0.073,10.802 c 0.046,6.627 5.456,11.963 12.082,11.918 l 13.904,-0.095 c 6.627,-0.046 5.963,-5.413 5.917,-12.041 L 17.957,7.878 C 17.913,1.252 14.529,-0.098 9.902,-0.068 L 0,0 Z" /></g><g
             transform="translate(384.5381,363.0777)"
             id="g64"><path
               inkscape:connector-curvature="0"
               id="path66"
               style="fill:#4c4c4c;fill-opacity:1;fill-rule:evenodd;stroke:none"
               d="m 0,0 c -7.502,-4.261 -14.828,-2.245 -18.101,3.517 l -5.338,9.39 c -3.274,5.762 -1.256,13.088 4.504,16.364 l 12.089,6.869 c 5.762,3.273 7.87,-1.707 11.145,-7.47 L 11.612,15.801 C 14.888,10.04 12.632,7.18 8.609,4.892 L 0,0 Z" /></g><g
             transform="translate(350.1133,408.1754)"
             id="g68"><path
               inkscape:connector-curvature="0"
               id="path70"
               style="fill:#4c4c4c;fill-opacity:1;fill-rule:evenodd;stroke:none"
               d="m 0,0 c -4.366,-7.441 -11.719,-9.358 -17.434,-6.005 l -9.318,5.465 c -5.717,3.351 -7.633,10.705 -4.28,16.422 l 7.034,11.993 c 3.353,5.716 7.669,2.457 13.386,-0.897 L 2.156,19.49 C 7.873,16.14 7.35,12.534 5.01,8.542 L 0,0 Z" /></g><g
             transform="translate(280.4668,232.2193)"
             id="g72"><path
               inkscape:connector-curvature="0"
               id="path74"
               style="fill:#4c4c4c;fill-opacity:1;fill-rule:evenodd;stroke:none"
               d="m 0,0 c -50.054,0 -90.63,40.576 -90.63,90.629 0,50.054 40.576,90.63 90.63,90.63 50.054,0 90.63,-40.576 90.63,-90.63 C 90.63,40.576 50.054,0 0,0 m -0.103,198.231 c -59.385,0 -107.527,-48.141 -107.527,-107.526 0,-59.386 48.142,-107.527 107.527,-107.527 59.386,0 107.527,48.141 107.527,107.527 0,59.385 -48.141,107.526 -107.527,107.526" /></g><g
             transform="translate(216.2315,234.6041)"
             id="g76"><path
               inkscape:connector-curvature="0"
               id="path78"
               style="fill:#4c4c4c;fill-opacity:1;fill-rule:evenodd;stroke:none"
               d="m 0,0 c 4.365,7.441 11.718,9.357 17.434,6.005 l 9.317,-5.464 c 5.717,-3.355 7.633,-10.709 4.281,-16.424 l -7.034,-11.992 c -3.353,-5.717 -7.67,-2.458 -13.387,0.895 l -12.768,7.488 c -5.716,3.353 -5.194,6.957 -2.854,10.949 L 0,0 Z" /></g><g
             transform="translate(297.752,430.0181)"
             id="g80"><path
               inkscape:connector-curvature="0"
               id="path82"
               style="fill:#4c4c4c;fill-opacity:1;fill-rule:evenodd;stroke:none"
               d="m 0,0 c -0.06,-8.627 -5.469,-13.963 -12.096,-13.918 l -10.802,0.075 c -6.627,0.046 -11.963,5.454 -11.918,12.081 l 0.095,13.904 c 0.046,6.627 5.413,5.963 12.041,5.917 L -7.878,17.957 C -1.251,17.912 0.099,14.53 0.067,9.902 L 0,0 Z" /></g><g
             transform="translate(241.4844,422.7545)"
             id="g84"><path
               inkscape:connector-curvature="0"
               id="path86"
               style="fill:#4c4c4c;fill-opacity:1;fill-rule:evenodd;stroke:none"
               d="m 0,0 c 4.262,-7.501 2.245,-14.826 -3.517,-18.101 l -9.391,-5.336 c -5.763,-3.274 -13.089,-1.258 -16.363,4.503 l -6.869,12.088 c -3.274,5.763 1.706,7.871 7.469,11.146 l 12.869,7.313 c 5.762,3.274 8.622,1.02 10.908,-3.004 L 0,0 Z" /></g><g
             transform="translate(196.3867,388.3306)"
             id="g88"><path
               inkscape:connector-curvature="0"
               id="path90"
               style="fill:#4c4c4c;fill-opacity:1;fill-rule:evenodd;stroke:none"
               d="M 0,0 C 7.441,-4.365 9.357,-11.719 6.005,-17.434 L 0.54,-26.752 c -3.353,-5.717 -10.707,-7.633 -16.423,-4.281 l -11.992,7.035 c -5.717,3.353 -2.458,7.669 0.896,13.387 l 7.488,12.767 c 3.352,5.717 6.957,5.194 10.948,2.854 L 0,0 Z" /></g><g
             transform="translate(174.543,335.9693)"
             id="g92"><path
               inkscape:connector-curvature="0"
               id="path94"
               style="fill:#4c4c4c;fill-opacity:1;fill-rule:evenodd;stroke:none"
               d="m 0,0 c 8.628,-0.06 13.963,-5.469 13.918,-12.096 l -0.074,-10.8 C 13.798,-29.525 8.388,-34.861 1.762,-34.816 l -13.903,0.095 c -6.628,0.045 -5.964,5.413 -5.918,12.041 l 0.101,14.801 c 0.045,6.627 3.428,7.978 8.055,7.945 L 0,0 Z" /></g><g
             transform="translate(181.8067,279.7017)"
             id="g96"><path
               inkscape:connector-curvature="0"
               id="path98"
               style="fill:#4c4c4c;fill-opacity:1;fill-rule:evenodd;stroke:none"
               d="m 0,0 c 7.502,4.262 14.827,2.244 18.101,-3.517 l 5.336,-9.391 c 3.275,-5.763 1.257,-13.09 -4.503,-16.364 L 6.846,-36.14 c -5.763,-3.274 -7.871,1.706 -11.146,7.469 l -7.313,12.868 c -3.275,5.762 -1.02,8.623 3.003,10.908 L 0,0 Z" /></g><g
             transform="translate(268.5928,212.7603)"
             id="g100"><path
               inkscape:connector-curvature="0"
               id="path102"
               style="fill:#4c4c4c;fill-opacity:1;fill-rule:evenodd;stroke:none"
               d="M 0,0 C 0.06,8.628 5.469,13.963 12.095,13.918 L 22.897,13.844 C 29.524,13.798 34.86,8.387 34.815,1.762 L 34.72,-12.141 c -0.046,-6.628 -5.413,-5.964 -12.041,-5.918 l -14.802,0.101 c -6.626,0.045 -7.976,3.428 -7.945,8.054 L 0,0 Z" /></g><g
             transform="translate(324.8604,220.024)"
             id="g104"><path
               inkscape:connector-curvature="0"
               id="path106"
               style="fill:#4c4c4c;fill-opacity:1;fill-rule:evenodd;stroke:none"
               d="m 0,0 c -4.262,7.502 -2.245,14.827 3.516,18.101 l 9.391,5.336 c 5.763,3.275 13.089,1.256 16.363,-4.503 L 36.139,6.846 C 39.413,1.083 34.433,-1.025 28.67,-4.3 L 15.801,-11.613 C 10.04,-14.888 7.18,-12.633 4.892,-8.611 L 0,0 Z" /></g><g
             transform="translate(369.958,254.4478)"
             id="g108"><path
               inkscape:connector-curvature="0"
               id="path110"
               style="fill:#4c4c4c;fill-opacity:1;fill-rule:evenodd;stroke:none"
               d="m 0,0 c -7.441,4.367 -9.358,11.719 -6.006,17.434 l 5.465,9.318 c 3.354,5.717 10.707,7.633 16.423,4.281 l 11.992,-7.035 c 5.717,-3.353 2.458,-7.669 -0.896,-13.387 L 19.49,-2.156 C 16.139,-7.873 12.534,-7.35 8.542,-5.01 L 0,0 Z" /></g><g
             transform="translate(391.8018,306.8091)"
             id="g112"><path
               inkscape:connector-curvature="0"
               id="path114"
               style="fill:#4c4c4c;fill-opacity:1;fill-rule:evenodd;stroke:none"
               d="m 0,0 c -8.628,0.061 -13.964,5.47 -13.918,12.096 l 0.073,10.802 c 0.046,6.627 5.456,11.963 12.082,11.918 l 13.904,-0.095 c 6.627,-0.046 5.963,-5.413 5.917,-12.041 L 17.957,7.878 C 17.913,1.252 14.529,-0.098 9.902,-0.068 L 0,0 Z" /></g><g
             transform="translate(384.5381,363.0777)"
             id="g116"><path
               inkscape:connector-curvature="0"
               id="path118"
               style="fill:#4c4c4c;fill-opacity:1;fill-rule:evenodd;stroke:none"
               d="m 0,0 c -7.502,-4.261 -14.828,-2.245 -18.101,3.517 l -5.338,9.39 c -3.274,5.762 -1.256,13.088 4.504,16.364 l 12.089,6.869 c 5.762,3.273 7.87,-1.707 11.145,-7.47 L 11.612,15.801 C 14.888,10.04 12.632,7.18 8.609,4.892 L 0,0 Z" /></g><g
             transform="translate(350.1133,408.1754)"
             id="g120"><path
               inkscape:connector-curvature="0"
               id="path122"
               style="fill:#4c4c4c;fill-opacity:1;fill-rule:evenodd;stroke:none"
               d="m 0,0 c -4.366,-7.441 -11.719,-9.358 -17.434,-6.005 l -9.318,5.465 c -5.717,3.351 -7.633,10.705 -4.28,16.422 l 7.034,11.993 c 3.353,5.716 7.669,2.457 13.386,-0.897 L 2.156,19.49 C 7.873,16.14 7.35,12.534 5.01,8.542 L 0,0 Z" /></g><g
             transform="translate(313.6055,374.9449)"
             id="g124"><path
               inkscape:connector-curvature="0"
               id="path126"
               style="fill:#4c4c4c;fill-opacity:1;fill-rule:nonzero;stroke:none"
               d="m 0,0 c -48.833,21.629 -57.504,-11.74 -65.476,-14.257 -8.173,-2.58 -32.469,2.429 -34.127,-3.297 -4.125,-14.965 -1.439,-18.426 -1.439,-18.426 0.001,0 29.086,-9.931 30.082,-16.926 0.996,-6.994 -9.536,-9.414 -21.846,-14.041 -4.358,-1.638 1.96,-10.345 5.628,-11.481 7.066,-2.187 21.449,-0.425 30.725,-3.153 14.091,-4.141 24.811,-16.229 31.139,-27.512 6.325,-11.286 11.121,-35.74 11.121,-35.74 0,0 86.976,11.253 73.32,120.421 C 27.032,-27.704 22.146,-14.089 15.91,-8.06 17.819,2.585 8.479,8.406 0,0" /></g><g
             transform="translate(300.1123,318.3209)"
             id="g128"><path
               inkscape:connector-curvature="0"
               id="path130"
               style="fill:#ffffff;fill-opacity:1;fill-rule:nonzero;stroke:none"
               d="m 0,0 c 29.949,14.499 36.054,-6.095 41.071,-7.493 5.143,-1.434 20.165,2.198 21.319,-1.332 2.885,-9.231 1.285,-11.444 1.285,-11.444 -10e-4,-0.001 -17.901,-6.797 -18.373,-11.173 -0.473,-4.377 6.137,-5.661 13.899,-8.282 2.749,-0.928 -1.052,-6.35 -3.262,-7.267 -12.577,-5.215 -19.029,-5.324 -24.1,-8.577 C 16.206,-65.596 13.428,-76.979 6.067,-81.214 -14.584,-93.093 -43.58,-82.3 -38.191,-83.962 c 0,0 -32.907,10.327 -21.751,60.744 38.415,-1.201 46.451,13.979 50.206,17.865 C -11.149,1.232 -5.457,5.055 0,0" /></g></g></g></g></g></svg>