<?xml version="1.0" encoding="iso-8859-1"?>
<!-- Generator: Adobe Illustrator 19.0.0, SVG Export Plug-In . SVG Version: 6.00 Build 0)  -->
<svg version="1.1" id="Layer_1" xmlns="http://www.w3.org/2000/svg" xmlns:xlink="http://www.w3.org/1999/xlink" x="0px" y="0px"
	 viewBox="0 0 512 512" style="enable-background:new 0 0 512 512;" xml:space="preserve">
<path style="fill:#E6EEFF;" d="M451,46v421c0,24.899-20.099,45-45,45h-15l-135-30.601L61,437V46c0-24.901,20.099-46,45-46h300
	C430.901,0,451,21.099,451,46z"/>
<path style="fill:#DAE2F2;" d="M451,46v421c0,24.899-20.099,45-45,45h-15l-135-30.601V0h150C430.901,0,451,21.099,451,46z"/>
<g>
	<path style="fill:#979CA7;" d="M376,92h-30c-8.291,0-15-6.709-15-15s6.709-15,15-15h30c8.291,0,15,6.709,15,15S384.291,92,376,92z"
		/>
	<path style="fill:#979CA7;" d="M376,152h-60c-8.291,0-15-6.709-15-15s6.709-15,15-15h60c8.291,0,15,6.709,15,15
		S384.291,152,376,152z"/>
	<path style="fill:#979CA7;" d="M376,212h-60c-8.291,0-15-6.709-15-15s6.709-15,15-15h60c8.291,0,15,6.709,15,15
		S384.291,212,376,212z"/>
</g>
<g>
	<path style="fill:#A1A7B3;" d="M226,272h-90c-8.291,0-15-6.709-15-15s6.709-15,15-15h90c8.291,0,15,6.709,15,15
		C241,265.291,234.291,272,226,272z"/>
	<path style="fill:#A1A7B3;" d="M226,332h-90c-8.291,0-15-6.709-15-15s6.709-15,15-15h90c8.291,0,15,6.709,15,15
		S234.291,332,226,332z"/>
</g>
<path style="fill:#5C5F66;" d="M483.389,386.985l15.485,15.485c17.395,17.395,17.607,46.032,0,63.64
	c-8.486,8.486-19.94,13.153-31.82,13.152c-12.092-0.211-23.334-4.666-31.82-13.152l-15.485-15.485v-42.426l21.213-21.213h42.427
	V386.985z"/>
<path style="fill:#53565C;" d="M483.389,386.985l15.485,15.485c17.395,17.395,17.607,46.032,0,63.64l-68.518-68.518l10.607-10.607
	H483.389z"/>
<path style="fill:#FFEACC;" d="M369.049,273.495l3.606,45.183l-21.213,21.213l-45.183-3.606
	c-2.547-3.818-27.154-68.306-29.063-72.761c-2.121-5.516-1.06-11.667,3.182-15.91l0.212-0.212
	c4.243-4.243,10.607-5.516,16.121-3.394C301.168,245.917,365.231,270.948,369.049,273.495z"/>
<path style="fill:#FFDBB2;" d="M369.049,273.495l3.606,45.183l-10.607,10.607l-81.67-81.67l0.212-0.212
	c4.243-4.243,10.607-5.516,16.121-3.394C301.168,245.917,365.231,270.948,369.049,273.495z"/>
<path style="fill:#4D97FF;" d="M371.595,275.191l111.794,111.794l-63.64,63.64L307.955,338.831
	c-0.848-0.848-1.273-1.697-1.696-2.546c15.485-2.333,30.122-8.909,42.002-20.789c11.879-11.879,18.668-26.729,20.789-42.002
	C369.897,273.918,370.747,274.343,371.595,275.191z"/>
<path style="fill:#4DB5FF;" d="M371.595,275.191l111.794,111.794l-31.82,31.82L348.261,315.497
	c11.879-11.879,18.668-26.729,20.789-42.002C369.897,273.918,370.747,274.343,371.595,275.191z"/>
<path style="fill:#C4CAD9;" d="M406,512H61c-32.999,0-61-27.001-61-60v-15c0-8.401,6.599-15,15-15h331c8.401,0,15,6.599,15,15v30
	C361,491.899,381.099,512,406,512z"/>
<path style="fill:#B8BFCC;" d="M406,512H256v-90h90c8.401,0,15,6.599,15,15v30C361,491.899,381.099,512,406,512z"/>
<path style="fill:#A1A7B3;" d="M301,378.8c0,8.399-6.599,15-15,15H136c-8.401,0-15-6.601-15-15c0-8.101,6.599-15,15-15h150
	C294.401,363.8,301,370.699,301,378.8z"/>
<path style="fill:#979CA7;" d="M301,378.8c0,8.399-6.599,15-15,15h-30v-30h30C294.401,363.8,301,370.699,301,378.8z"/>
<path style="fill:#4DB5FF;" d="M256,152.3c-13.5-18.301-35.4-30.3-60-30.3c-41.4,0-75,33.6-75,75c0,8.399,6.599,15,15,15h120
	c8.401,0,15-6.601,15-15C271,180.2,265.6,164.599,256,152.3z"/>
<path style="fill:#4D97FF;" d="M271,197c0,8.399-6.599,15-15,15v-59.7C265.6,164.599,271,180.2,271,197z"/>
<path style="fill:#4DB5FF;" d="M196,152c-24.814,0-45-20.186-45-45s20.186-45,45-45s45,20.186,45,45S220.814,152,196,152z"/>
<g>
</g>
<g>
</g>
<g>
</g>
<g>
</g>
<g>
</g>
<g>
</g>
<g>
</g>
<g>
</g>
<g>
</g>
<g>
</g>
<g>
</g>
<g>
</g>
<g>
</g>
<g>
</g>
<g>
</g>
</svg>
