<?xml version="1.0" encoding="UTF-8" standalone="no"?>
<!-- Generator: Adobe Illustrator 19.0.0, SVG Export Plug-In . SVG Version: 6.00 Build 0)  -->

<svg
   xmlns:dc="http://purl.org/dc/elements/1.1/"
   xmlns:cc="http://creativecommons.org/ns#"
   xmlns:rdf="http://www.w3.org/1999/02/22-rdf-syntax-ns#"
   xmlns:svg="http://www.w3.org/2000/svg"
   xmlns="http://www.w3.org/2000/svg"
   xmlns:sodipodi="http://sodipodi.sourceforge.net/DTD/sodipodi-0.dtd"
   xmlns:inkscape="http://www.inkscape.org/namespaces/inkscape"
   version="1.1"
   id="Layer_1"
   x="0px"
   y="0px"
   viewBox="0 0 512 512"
   style="enable-background:new 0 0 512 512;"
   xml:space="preserve"
   inkscape:version="0.91 r13725"
   sodipodi:docname="tribune.svg"><metadata
     id="metadata63"><rdf:RDF><cc:Work
         rdf:about=""><dc:format>image/svg+xml</dc:format><dc:type
           rdf:resource="http://purl.org/dc/dcmitype/StillImage" /></cc:Work></rdf:RDF></metadata><defs
     id="defs61" /><sodipodi:namedview
     pagecolor="#ffffff"
     bordercolor="#666666"
     borderopacity="1"
     objecttolerance="10"
     gridtolerance="10"
     guidetolerance="10"
     inkscape:pageopacity="0"
     inkscape:pageshadow="2"
     inkscape:window-width="860"
     inkscape:window-height="480"
     id="namedview59"
     showgrid="false"
     inkscape:zoom="0.4609375"
     inkscape:cx="256"
     inkscape:cy="256"
     inkscape:window-x="15"
     inkscape:window-y="51"
     inkscape:window-maximized="0"
     inkscape:current-layer="Layer_1" /><path
     style="fill:#E6E6E6;"
     d="M103.752,159.634l2.915,26.752L142.189,512h227.609l35.534-325.614l2.915-26.752H103.752z"
     id="path3" /><g
     id="g5"><polygon
       style="fill:#CCCCCC;"
       points="408.248,159.634 405.333,186.386 106.667,186.386 103.752,159.634  "
       id="polygon7" /><polygon
       style="fill:#CCCCCC;"
       points="103.752,159.634 142.189,512 175.773,512 145.565,159.634  "
       id="polygon9" /></g><g
     id="g13"><path
       style="fill:#CCCCCC;"
       d="M156.199,118.429c-5.095,0-9.225-4.13-9.225-9.225V59.39c0-2.979,1.439-5.775,3.863-7.507   l25.83-18.45c4.146-2.962,9.908-2.001,12.868,2.145s2.001,9.908-2.145,12.868l-21.966,15.691v45.067   C165.424,114.299,161.294,118.429,156.199,118.429z"
       id="path15" /><path
       style="fill:#CCCCCC;"
       d="M355.802,118.429c-5.095,0-9.225-4.13-9.225-9.225V64.138l-21.966-15.691   c-4.146-2.962-5.106-8.723-2.145-12.868s8.724-5.106,12.868-2.145l25.83,18.45c2.424,1.732,3.863,4.528,3.863,7.507v49.814   C365.027,114.299,360.897,118.429,355.802,118.429z"
       id="path17" /></g><g
     id="g19"><path
       style="fill:#F95428;"
       d="M215.939,7.029c9.372,9.36,9.372,24.551,0,33.911c-9.36,9.372-24.551,9.372-33.911,0   c-9.372-9.36-9.372-24.551,0-33.911C191.389-2.343,206.579-2.343,215.939,7.029z"
       id="path21" /><path
       style="fill:#F95428;"
       d="M329.971,7.029c9.36,9.36,9.36,24.551,0,33.911c-9.372,9.372-24.551,9.372-33.923,0   c-9.36-9.36-9.36-24.551,0-33.911C305.421-2.343,320.599-2.343,329.971,7.029z"
       id="path23" /></g><polygon
     style="fill:#F7B239;"
     points="426.894,109.204 426.894,160.864 408.248,160.864 103.752,160.864 85.106,160.864   85.106,109.204 156.199,109.204 355.801,109.204 "
     id="polygon25" /><polygon
     style="fill:#E09B2D;"
     points="118.242,109.204 118.242,160.864 116.435,160.864 86.914,160.864 85.106,160.864   85.106,109.204 91.999,109.204 111.35,109.204 "
     id="polygon27" /><g
     id="g29" /><g
     id="g31" /><g
     id="g33" /><g
     id="g35" /><g
     id="g37" /><g
     id="g39" /><g
     id="g41" /><g
     id="g43" /><g
     id="g45" /><g
     id="g47" /><g
     id="g49" /><g
     id="g51" /><g
     id="g53" /><g
     id="g55" /><g
     id="g57" /></svg>