<?xml version="1.0" encoding="UTF-8" standalone="no"?>
<!DOCTYPE svg PUBLIC "-//W3C//DTD SVG 1.1//EN"
 "http://www.w3.org/Graphics/SVG/1.1/DTD/svg11.dtd">
<!-- Generated by graphviz version 2.38.0 (20140413.2041)
 -->
<!-- Title: %3 Pages: 1 -->
<svg width="664pt" height="218pt"
 viewBox="0.00 0.00 664.00 218.00" xmlns="http://www.w3.org/2000/svg" xmlns:xlink="http://www.w3.org/1999/xlink">
<g id="graph0" class="graph" transform="scale(1 1) rotate(0) translate(4 214)">
<title>%3</title>
<polygon fill="white" stroke="none" points="-4,4 -4,-214 660,-214 660,4 -4,4"/>
<!-- ui -->
<g id="node1" class="node"><title>ui</title>
<polygon fill="#63bc46" stroke="black" points="421,-210 281,-210 281,-174 421,-174 421,-210"/>
<text text-anchor="start" x="289" y="-188.2" font-family="Open Sans;sans-serif" font-size="16.00" fill="white">User interface &#160;</text>
</g>
<!-- student -->
<g id="node2" class="node"><title>student</title>
<polygon fill="#63bc46" stroke="black" points="343,-123 71,-123 71,-87 343,-87 343,-123"/>
<text text-anchor="start" x="79" y="-101.2" font-family="Open Sans;sans-serif" font-size="16.00" fill="white">Student business logic module &#160;</text>
</g>
<!-- ui&#45;&gt;student -->
<g id="edge1" class="edge"><title>ui&#45;&gt;student</title>
<path fill="none" stroke="black" d="M321.859,-173.799C299.706,-160.722 269.042,-142.622 244.969,-128.412"/>
<polygon fill="black" stroke="black" points="246.488,-125.245 236.097,-123.175 242.93,-131.273 246.488,-125.245"/>
<text text-anchor="middle" x="303" y="-144.8" font-family="Open Sans;sans-serif" font-size="14.00">calls</text>
</g>
<!-- teacher -->
<g id="node3" class="node"><title>teacher</title>
<polygon fill="#63bc46" stroke="black" points="632.5,-123 361.5,-123 361.5,-87 632.5,-87 632.5,-123"/>
<text text-anchor="start" x="369.5" y="-101.2" font-family="Open Sans;sans-serif" font-size="16.00" fill="white">Teacher business logic module &#160;</text>
</g>
<!-- ui&#45;&gt;teacher -->
<g id="edge2" class="edge"><title>ui&#45;&gt;teacher</title>
<path fill="none" stroke="black" d="M380.545,-173.799C403.105,-160.665 434.371,-142.462 458.826,-128.225"/>
<polygon fill="black" stroke="black" points="460.618,-131.232 467.499,-123.175 457.096,-125.182 460.618,-131.232"/>
<text text-anchor="middle" x="448" y="-144.8" font-family="Open Sans;sans-serif" font-size="14.00">calls</text>
</g>
<!-- mysql -->
<g id="node4" class="node"><title>mysql</title>
<polygon fill="#63bc46" stroke="black" points="168,-36 1.42109e-14,-36 1.42109e-14,-0 168,-0 168,-36"/>
<text text-anchor="start" x="8" y="-14.2" font-family="Open Sans;sans-serif" font-size="16.00" fill="white">MySQL connector &#160;</text>
</g>
<!-- student&#45;&gt;mysql -->
<g id="edge6" class="edge"><title>student&#45;&gt;mysql</title>
<path fill="none" stroke="black" d="M182.109,-86.799C163.437,-73.8953 137.685,-56.0995 117.25,-41.9777"/>
<polygon fill="black" stroke="black" points="119.07,-38.9813 108.854,-36.1754 115.091,-44.74 119.07,-38.9813"/>
<text text-anchor="middle" x="168" y="-57.8" font-family="Open Sans;sans-serif" font-size="14.00">calls</text>
</g>
<!-- image -->
<g id="node5" class="node"><title>image</title>
<polygon fill="#63bc46" stroke="black" points="471.5,-36 186.5,-36 186.5,-0 471.5,-0 471.5,-36"/>
<text text-anchor="start" x="194.5" y="-14.2" font-family="Open Sans;sans-serif" font-size="16.00" fill="white">Filesystem profile image storage &#160;</text>
</g>
<!-- student&#45;&gt;image -->
<g id="edge5" class="edge"><title>student&#45;&gt;image</title>
<path fill="none" stroke="black" d="M231.689,-86.799C250.209,-73.8953 275.751,-56.0995 296.02,-41.9777"/>
<polygon fill="black" stroke="black" points="298.144,-44.7638 304.348,-36.1754 294.142,-39.0203 298.144,-44.7638"/>
<text text-anchor="middle" x="291" y="-57.8" font-family="Open Sans;sans-serif" font-size="14.00">calls</text>
</g>
<!-- teacher&#45;&gt;image -->
<g id="edge4" class="edge"><title>teacher&#45;&gt;image</title>
<path fill="none" stroke="black" d="M463.003,-86.799C436.73,-73.506 400.195,-55.0215 371.909,-40.7101"/>
<polygon fill="black" stroke="black" points="373.163,-37.4218 362.66,-36.0302 370.002,-43.6678 373.163,-37.4218"/>
<text text-anchor="middle" x="439" y="-57.8" font-family="Open Sans;sans-serif" font-size="14.00">calls</text>
</g>
<!-- oracle -->
<g id="node6" class="node"><title>oracle</title>
<polygon fill="#63bc46" stroke="black" points="656,-36 490,-36 490,-0 656,-0 656,-36"/>
<text text-anchor="start" x="498" y="-14.2" font-family="Open Sans;sans-serif" font-size="16.00" fill="white">Oracle connector &#160;</text>
</g>
<!-- teacher&#45;&gt;oracle -->
<g id="edge3" class="edge"><title>teacher&#45;&gt;oracle</title>
<path fill="none" stroke="black" d="M512.38,-86.799C523.402,-74.4713 538.417,-57.6787 550.745,-43.8902"/>
<polygon fill="black" stroke="black" points="553.587,-45.9631 557.643,-36.1754 548.369,-41.2973 553.587,-45.9631"/>
<text text-anchor="middle" x="555" y="-57.8" font-family="Open Sans;sans-serif" font-size="14.00">calls</text>
</g>
</g>
</svg>
