<?xml version="1.0" encoding="UTF-8" standalone="no"?>
<svg
   xmlns:dc="http://purl.org/dc/elements/1.1/"
   xmlns:cc="http://creativecommons.org/ns#"
   xmlns:rdf="http://www.w3.org/1999/02/22-rdf-syntax-ns#"
   xmlns:svg="http://www.w3.org/2000/svg"
   xmlns="http://www.w3.org/2000/svg"
   xmlns:sodipodi="http://sodipodi.sourceforge.net/DTD/sodipodi-0.dtd"
   xmlns:inkscape="http://www.inkscape.org/namespaces/inkscape"
   height="32"
   width="32"
   xml:space="preserve"
   viewBox="0 0 32 32"
   y="0px"
   x="0px"
   id="Capa_1"
   version="1.1"
   inkscape:version="0.91 r13725"
   sodipodi:docname="file.svg"><sodipodi:namedview
     pagecolor="#ffffff"
     bordercolor="#666666"
     borderopacity="1"
     objecttolerance="10"
     gridtolerance="10"
     guidetolerance="10"
     inkscape:pageopacity="0"
     inkscape:pageshadow="2"
     inkscape:window-width="3840"
     inkscape:window-height="2047"
     id="namedview27"
     showgrid="false"
     inkscape:zoom="20.85965"
     inkscape:cx="34.544638"
     inkscape:cy="-5.4586359"
     inkscape:window-x="0"
     inkscape:window-y="36"
     inkscape:window-maximized="1"
     inkscape:current-layer="Capa_1" /><metadata
     id="metadata51"><rdf:RDF><cc:Work
         rdf:about=""><dc:format>image/svg+xml</dc:format><dc:type
           rdf:resource="http://purl.org/dc/dcmitype/StillImage" /><dc:title /></cc:Work></rdf:RDF></metadata><defs
     id="defs49" /><g
     transform="matrix(0.3993852,0,0,0.3993852,4.018444,4.018444)"
     id="g3"><path
       id="path5"
       d="m 42.5,22 -25,0 c -0.552,0 -1,0.447 -1,1 0,0.553 0.448,1 1,1 l 25,0 c 0.552,0 1,-0.447 1,-1 0,-0.553 -0.448,-1 -1,-1 z"
       inkscape:connector-curvature="0" /><path
       id="path7"
       d="m 17.5,16 10,0 c 0.552,0 1,-0.447 1,-1 0,-0.553 -0.448,-1 -1,-1 l -10,0 c -0.552,0 -1,0.447 -1,1 0,0.553 0.448,1 1,1 z"
       inkscape:connector-curvature="0" /><path
       id="path9"
       d="m 42.5,30 -25,0 c -0.552,0 -1,0.447 -1,1 0,0.553 0.448,1 1,1 l 25,0 c 0.552,0 1,-0.447 1,-1 0,-0.553 -0.448,-1 -1,-1 z"
       inkscape:connector-curvature="0" /><path
       id="path11"
       d="m 42.5,38 -25,0 c -0.552,0 -1,0.447 -1,1 0,0.553 0.448,1 1,1 l 25,0 c 0.552,0 1,-0.447 1,-1 0,-0.553 -0.448,-1 -1,-1 z"
       inkscape:connector-curvature="0" /><path
       id="path13"
       d="m 42.5,46 -25,0 c -0.552,0 -1,0.447 -1,1 0,0.553 0.448,1 1,1 l 25,0 c 0.552,0 1,-0.447 1,-1 0,-0.553 -0.448,-1 -1,-1 z"
       inkscape:connector-curvature="0" /><path
       id="path15"
       d="M 38.914,0 6.5,0 l 0,60 47,0 0,-45.414 L 38.914,0 Z M 39.5,3.414 50.086,14 39.5,14 39.5,3.414 Z M 8.5,58 l 0,-56 29,0 0,14 14,0 0,42 -43,0 z"
       inkscape:connector-curvature="0" /></g><g
     transform="translate(0,-28)"
     id="g17" /><g
     transform="translate(0,-28)"
     id="g19" /><g
     transform="translate(0,-28)"
     id="g21" /><g
     transform="translate(0,-28)"
     id="g23" /><g
     transform="translate(0,-28)"
     id="g25" /><g
     transform="translate(0,-28)"
     id="g27" /><g
     transform="translate(0,-28)"
     id="g29" /><g
     transform="translate(0,-28)"
     id="g31" /><g
     transform="translate(0,-28)"
     id="g33" /><g
     transform="translate(0,-28)"
     id="g35" /><g
     transform="translate(0,-28)"
     id="g37" /><g
     transform="translate(0,-28)"
     id="g39" /><g
     transform="translate(0,-28)"
     id="g41" /><g
     transform="translate(0,-28)"
     id="g43" /><g
     transform="translate(0,-28)"
     id="g45" /></svg>