<?xml version="1.0" encoding="UTF-8" standalone="no"?>
<svg
   xmlns:dc="http://purl.org/dc/elements/1.1/"
   xmlns:cc="http://creativecommons.org/ns#"
   xmlns:rdf="http://www.w3.org/1999/02/22-rdf-syntax-ns#"
   xmlns:svg="http://www.w3.org/2000/svg"
   xmlns="http://www.w3.org/2000/svg"
   height="32"
   width="32"
   xml:space="preserve"
   viewBox="0 0 32 32"
   y="0px"
   x="0px"
   id="Capa_1"
   version="1.1"><metadata
     id="metadata39"><rdf:RDF><cc:Work
         rdf:about=""><dc:format>image/svg+xml</dc:format><dc:type
           rdf:resource="http://purl.org/dc/dcmitype/StillImage" /><dc:title></dc:title></cc:Work></rdf:RDF></metadata><defs
     id="defs37" /><path
     id="path3"
     d="m 30.618623,11.479873 -1.855911,0 0,-3.333195 c 0,-0.8013919 -0.651962,-1.452822 -1.452823,-1.452822 l -13.16314,0 -2.658899,-3.7224576 -9.9884174,0 c -0.80086024,0 -1.4528221,0.6519619 -1.4528221,1.452822 l 0,23.2318586 0.0031907,0 c -0.0026589,0.299392 0.09040254,0.592403 0.27758898,0.837552 0.26057204,0.34034 0.65515254,0.534971 1.08323512,0.534971 l 23.8019257,0 c 0.614738,0 1.156088,-0.414257 1.30286,-0.964116 l 5.437978,-14.910039 0,-0.09413 c 0,-0.915725 -0.561559,-1.58045 -1.334765,-1.58045 z M 1.1101698,4.4242204 c 0,-0.214839 0.1749555,-0.3892627 0.3892628,-0.3892627 l 9.4406854,0 2.658898,3.7224576 13.710342,0 c 0.21484,0 0.389264,0.1744237 0.389264,0.3892627 l 0,3.333195 -20.8819246,0 c -0.076576,0 -0.1526208,0.0064 -0.2265381,0.01914 -0.5174217,0.08668 -0.9476314,0.464244 -1.0757904,0.944441 l -4.4041991,12.011307 0,-20.0305443 z M 25.502371,27.743291 c -0.0351,0.130286 -0.154748,0.221752 -0.28982,0.221752 l -23.8019257,0 c -0.1292224,0 -0.2047351,-0.07391 -0.2382373,-0.118055 C 1.138886,27.803378 1.087304,27.710852 1.106979,27.630022 L 6.5263457,12.765185 c 0.035097,-0.130286 0.1547478,-0.221753 0.2898199,-0.221753 l 21.9465474,0 1.855911,0 c 0.202076,0 0.253658,0.290352 0.266953,0.435528 l -5.383205,14.764331 z" /><g
     transform="matrix(0.53177966,0,0,0.53177966,0,-1.8072033)"
     id="g5" /><g
     transform="matrix(0.53177966,0,0,0.53177966,0,-1.8072033)"
     id="g7" /><g
     transform="matrix(0.53177966,0,0,0.53177966,0,-1.8072033)"
     id="g9" /><g
     transform="matrix(0.53177966,0,0,0.53177966,0,-1.8072033)"
     id="g11" /><g
     transform="matrix(0.53177966,0,0,0.53177966,0,-1.8072033)"
     id="g13" /><g
     transform="matrix(0.53177966,0,0,0.53177966,0,-1.8072033)"
     id="g15" /><g
     transform="matrix(0.53177966,0,0,0.53177966,0,-1.8072033)"
     id="g17" /><g
     transform="matrix(0.53177966,0,0,0.53177966,0,-1.8072033)"
     id="g19" /><g
     transform="matrix(0.53177966,0,0,0.53177966,0,-1.8072033)"
     id="g21" /><g
     transform="matrix(0.53177966,0,0,0.53177966,0,-1.8072033)"
     id="g23" /><g
     transform="matrix(0.53177966,0,0,0.53177966,0,-1.8072033)"
     id="g25" /><g
     transform="matrix(0.53177966,0,0,0.53177966,0,-1.8072033)"
     id="g27" /><g
     transform="matrix(0.53177966,0,0,0.53177966,0,-1.8072033)"
     id="g29" /><g
     transform="matrix(0.53177966,0,0,0.53177966,0,-1.8072033)"
     id="g31" /><g
     transform="matrix(0.53177966,0,0,0.53177966,0,-1.8072033)"
     id="g33" /></svg>